<?xml version="1.0" encoding="iso-8859-1"?>
<!-- Uploaded to: SVG Repo, www.svgrepo.com, Generator: SVG Repo Mixer Tools -->
<svg version="1.1" id="Layer_1" xmlns="http://www.w3.org/2000/svg" xmlns:xlink="http://www.w3.org/1999/xlink" 
	 viewBox="0 0 512 512" xml:space="preserve">
<g>
	<path style="fill:#FFDA44;" d="M133.038,221.349c-5.687-14.312-9.464-18.089-23.775-23.775v-14.536
		c14.311-5.686,18.088-9.463,23.775-23.775h14.535c5.687,14.311,9.464,18.089,23.775,23.775v14.535
		c-14.311,5.686-18.088,9.464-23.775,23.775h-14.535V221.349z"/>
	<path style="fill:#FFDA44;" d="M94.809,159.825H80.273c-5.687-14.312-9.464-18.089-23.775-23.775v-14.536
		c14.311-5.686,18.088-9.463,23.775-23.775h14.536c5.687,14.312,9.464,18.089,23.775,23.775v14.535
		C104.273,141.736,100.496,145.513,94.809,159.825z"/>
	<path style="fill:#FFDA44;" d="M421.3,328.754h-14.536c-8.09-20.358-13.843-26.112-34.203-34.203v-14.536
		c20.359-8.091,26.113-13.844,34.203-34.203h14.535c8.091,20.358,13.844,26.112,34.203,34.203v14.535
		C435.144,302.641,429.39,308.395,421.3,328.754z"/>
	<path style="fill:#FFDA44;" d="M394.71,406.336h-14.536c-5.686-14.311-9.464-18.089-23.775-23.775v-14.535
		c14.312-5.687,18.089-9.465,23.775-23.775h14.535c5.687,14.311,9.464,18.088,23.775,23.775v14.535
		C404.175,388.247,400.397,392.024,394.71,406.336z"/>
</g>
<path style="fill:#FFFFFF;" d="M418.485,368.025v14.536c-14.307,5.683-18.092,9.468-23.775,23.775h-14.536
	c-3.212-8.081-5.808-12.795-10.042-16.403v27.696c0,52.034-42.336,94.371-94.371,94.371s-94.371-42.336-94.371-94.371V177.135
	c-7.383-2.252-13.952-4.786-19.521-7.602c-6.204-3.128-10.073-9.364-10.094-16.278l-0.052-25.548
	c-5.621-8.373-12.701-12.743-26.299-18.144V95.028c20.355-8.092,26.111-13.848,34.203-34.203h14.536
	c2.461,6.204,4.713,11.043,7.226,15.016V32.847h0.521c0-10.782,10.428-19.26,31.002-25.214C229.942,2.711,252.445,0,276.282,0
	c23.838,0,46.341,2.711,63.369,7.633c20.574,5.954,31.002,14.432,31.002,25.214c0,1.387-0.177,2.732-0.521,4.046V96.3
	c1.47-0.501,2.899-1.022,4.275-1.554c5.6-2.179,11.898-1.449,16.862,1.95c4.984,3.399,7.956,9.041,7.956,15.068v41.461
	c0,6.924-3.869,13.181-10.084,16.319c-5.433,2.742-11.835,5.235-19.01,7.445v183.663c4.234-3.608,6.83-8.321,10.042-16.403h14.536
	C400.393,358.556,404.178,362.342,418.485,368.025z"/>
<path style="fill:#E0E0E2;" d="M382.44,109.6c-0.416-0.286-1.281-0.703-2.371-0.278c-25.065,9.735-63.177,15.318-104.563,15.318
	c-29.604,0-58.338-2.953-81.396-8.325c-9.575,5.814-14.166,12.903-19.946,27.45h-6.762l0.022,9.454
	c0.002,0.989,0.572,1.891,1.488,2.352c21.591,10.888,62.435,17.653,106.594,17.653c44.175,0,85.018-6.762,106.59-17.649
	c0.917-0.462,1.486-1.365,1.486-2.357v-41.454C383.581,110.561,382.866,109.892,382.44,109.6z"/>
<path style="fill:#933EC5;" d="M344.062,254.957v159.44c0,37.978-30.616,68.885-68.281,68.927h-0.073
	c-37.644-0.042-68.249-30.949-68.249-68.927v-159.44H344.062z"/>
<g>
	<path style="fill:#FFDA44;" d="M341.946,344.813h-14.536c-5.686-14.311-9.464-18.089-23.775-23.775v-14.535
		c14.312-5.687,18.089-9.465,23.775-23.775h14.535c5.686,14.31,9.463,18.088,23.775,23.775v14.535
		C351.41,326.724,347.632,330.502,341.946,344.813z"/>
	<path style="fill:#FFDA44;" d="M394.71,406.336h-14.536c-5.686-14.311-9.464-18.089-23.775-23.775v-14.535
		c14.312-5.687,18.089-9.465,23.775-23.775h14.535c5.687,14.311,9.464,18.088,23.775,23.775v14.535
		C404.175,388.247,400.397,392.024,394.71,406.336z"/>
	<path style="fill:#FFDA44;" d="M159.629,143.766c-8.091-20.358-13.844-26.112-34.203-34.203V95.028
		c20.358-8.09,26.112-13.843,34.203-34.203h14.535c8.09,20.359,13.844,26.113,34.203,34.203v14.535
		c-20.359,8.091-26.113,13.844-34.203,34.203H159.629z"/>
</g>
<path style="fill:#FFFFFF;" d="M197.032,89.932c3.21,1.704,6.929,3.345,11.335,5.095v8.293c19.853,3.685,43.155,5.679,67.139,5.679
	c29.102,0,57.1-2.977,78.986-8.208V52.494c-4.152,2.048-9.099,3.904-14.835,5.563c-17.034,4.924-39.54,7.637-63.373,7.637
	s-46.34-2.713-63.372-7.637c-6.226-1.801-11.517-3.835-15.878-6.094L197.032,89.932L197.032,89.932z"/>
<rect x="255.427" y="254.957" width="26.069" height="15.642"/>
<rect x="207.46" y="367.576" width="15.642" height="26.069"/>
<rect x="207.46" y="284.155" width="15.642" height="72.994"/>
<path d="M296.765,142.253c-6.711,0.32-13.603,0.483-20.485,0.483v15.642c7.129,0,14.273-0.168,21.231-0.501L296.765,142.253z"/>
<path d="M147.573,159.262h-14.535c-5.687,14.312-9.464,18.089-23.775,23.775v14.535c14.311,5.686,18.088,9.463,23.775,23.775h14.535
	c5.687-14.311,9.464-18.089,23.775-23.775v-14.535C157.038,177.351,153.261,173.573,147.573,159.262z M140.305,201.114
	c-2.978-4.407-6.403-7.83-10.808-10.808c4.406-2.978,7.829-6.403,10.808-10.808c2.978,4.407,6.403,7.83,10.808,10.808
	C146.708,193.284,143.283,196.708,140.305,201.114z"/>
<path d="M118.584,121.514c-14.311-5.686-18.088-9.463-23.775-23.775H80.273c-5.687,14.312-9.464,18.089-23.775,23.775v14.535
	c14.311,5.686,18.088,9.463,23.775,23.775h14.536c5.687-14.312,9.464-18.089,23.775-23.775V121.514z M87.541,139.59
	c-2.978-4.408-6.402-7.83-10.808-10.808c4.407-2.978,7.829-6.402,10.808-10.808c2.978,4.407,6.402,7.83,10.808,10.808
	C93.943,131.76,90.52,135.184,87.541,139.59z"/>
<path d="M421.3,245.812h-14.536c-8.09,20.358-13.843,26.112-34.203,34.203v14.535c20.359,8.091,26.113,13.844,34.203,34.203h14.535
	c8.091-20.358,13.844-26.112,34.203-34.203v-14.535C435.144,271.925,429.39,266.171,421.3,245.812z M414.032,307.507
	c-5.208-8.988-11.234-15.015-20.222-20.223c8.989-5.208,15.015-11.235,20.222-20.223c5.209,8.99,11.234,15.014,20.223,20.223
	C425.266,292.492,419.241,298.516,414.032,307.507z"/>
<path d="M394.71,344.251h-14.536c-3.21,8.076-5.811,12.797-10.042,16.401V176.989c7.177-2.215,13.573-4.704,19.01-7.447
	c6.219-3.138,10.082-9.391,10.082-16.321v-41.456c0-6.03-2.972-11.665-7.949-15.071c-4.964-3.397-11.269-4.123-16.87-1.95
	c-1.373,0.534-2.801,1.053-4.272,1.561V36.896c0.345-1.312,0.521-2.66,0.521-4.049c0-10.78-10.43-19.262-30.998-25.21
	C322.622,2.713,300.116,0,276.282,0s-46.34,2.713-63.372,7.637c-20.569,5.948-30.998,14.43-30.998,25.21h-0.521v42.997
	c-2.511-3.971-4.761-8.815-7.226-15.019h-14.535c-8.091,20.359-13.844,26.113-34.203,34.203v14.535
	c13.602,5.406,20.681,9.774,26.298,18.145l0.058,25.547c0.016,6.914,3.88,13.152,10.086,16.283
	c5.567,2.807,12.14,5.348,19.524,7.602v240.49c0,52.036,42.334,94.371,94.371,94.371s94.371-42.334,94.371-94.371v-27.695
	c4.231,3.604,6.832,8.324,10.042,16.401h14.535c5.687-14.312,9.465-18.089,23.775-23.775v-14.535
	C404.174,362.339,400.397,358.561,394.71,344.251z M275.506,109c-23.984,0-47.285-1.994-67.139-5.679v-8.293
	c-4.406-1.751-8.125-3.392-11.335-5.095V51.963c4.36,2.259,9.651,4.293,15.878,6.094c17.034,4.924,39.54,7.637,63.372,7.637
	s46.34-2.713,63.372-7.637c5.736-1.659,10.682-3.515,14.835-5.563v48.299C332.605,106.023,304.606,109,275.506,109z M219.06,22.158
	c15.456-4.202,35.777-6.516,57.222-6.516c21.444,0,41.766,2.314,57.222,6.516c16.556,4.501,21.091,9.459,21.494,10.689h-0.508v0.816
	c-1.574,1.927-6.973,6.064-20.986,9.873c-15.456,4.202-35.777,6.516-57.222,6.516s-41.766-2.314-57.222-6.516
	c-16.556-4.501-21.091-9.459-21.494-10.689C197.969,31.617,202.504,26.658,219.06,22.158z M146.673,102.296
	c8.988-5.208,15.015-11.234,20.222-20.222c5.208,8.988,11.235,15.014,20.222,20.222c-8.99,5.209-15.014,11.233-20.222,20.223
	C161.687,113.528,155.663,107.504,146.673,102.296z M167.422,153.22l-0.022-9.454h6.762c5.78-14.547,10.371-21.635,19.946-27.45
	c23.058,5.372,51.791,8.325,81.395,8.325c41.385,0,79.498-5.583,104.563-15.318c1.091-0.424,1.955-0.008,2.371,0.278
	c0.426,0.291,1.142,0.96,1.142,2.163v12.964c-15.877,8.282-43.875,14.512-76.586,16.909l1.143,15.599
	c30.74-2.251,57.228-7.683,75.444-15.289v11.274c0,0.992-0.569,1.894-1.486,2.357c-21.573,10.885-62.415,17.649-106.59,17.649
	c-44.159,0-85.003-6.764-106.594-17.653C167.995,155.11,167.425,154.209,167.422,153.22z M354.49,417.629
	c0,43.412-35.318,78.729-78.729,78.729s-78.729-35.318-78.729-78.729V181.212c22.252,4.919,49.474,7.655,78.473,7.655
	c29.226,0,56.645-2.775,78.986-7.762v119.903c-4.686-3.125-7.513-6.9-10.428-13.275v-32.774h-52.138v15.642h36.497v12.128h-1.011
	c-5.686,14.31-9.463,18.088-23.775,23.775v14.535c14.311,5.686,18.089,9.464,23.775,23.775h1.011v69.584
	c0,29.369-23.624,53.265-52.673,53.286c-29.034-0.021-52.646-23.916-52.646-53.286H207.46c0,37.981,30.608,68.885,68.249,68.927
	c0.028,0,0.051,0,0.078,0c37.655-0.042,68.275-30.946,68.275-68.927v-74.588c2.915-6.377,5.742-10.15,10.428-13.275v48.343h1.908
	v1.043h-1.908L354.49,417.629L354.49,417.629z M334.678,324.578c-2.978-4.406-6.403-7.829-10.808-10.807
	c4.408-2.979,7.83-6.403,10.808-10.808c2.978,4.407,6.402,7.829,10.808,10.808C341.08,316.749,337.657,320.172,334.678,324.578z
	 M387.442,386.102c-2.978-4.407-6.403-7.83-10.808-10.808c4.408-2.979,7.83-6.403,10.808-10.808
	c2.979,4.406,6.404,7.83,10.808,10.808C393.844,378.272,390.421,381.694,387.442,386.102z"/>
</svg>